<mxfile host="app.diagrams.net" agent="Mozilla/5.0 (Windows NT 10.0; Win64; x64) AppleWebKit/537.36 (KHTML, like Gecko) Chrome/130.0.0.0 Safari/537.36" scale="1" border="0" version="24.8.3">
  <diagram name="Page-1" id="ayWW3eKNdWkRORRCTG4c">
    <mxGraphModel dx="1221" dy="608" grid="1" gridSize="10" guides="1" tooltips="1" connect="1" arrows="1" fold="1" page="1" pageScale="1" pageWidth="850" pageHeight="1100" math="0" shadow="0">
      <root>
        <mxCell id="0" />
        <mxCell id="1" parent="0" />
        <mxCell id="MYvb_t0MB4lMacTX5NM--2" value="" style="text;html=1;align=left;verticalAlign=middle;whiteSpace=wrap;rounded=0;fontSize=24;fontStyle=1;fillColor=#dae8fc;strokeColor=#6c8ebf;" parent="1" vertex="1">
          <mxGeometry x="230" y="250" width="530" height="100" as="geometry" />
        </mxCell>
        <mxCell id="MYvb_t0MB4lMacTX5NM--3" value="&lt;font style=&quot;&quot;&gt;&lt;span style=&quot;font-size: 19px;&quot;&gt;&lt;b&gt;Azure Bicep (Infrastructure as Code) to deploy Azure services such as&amp;nbsp; App Service, Bot Service with UserAssignedMSI, Cosmos DB, Key Vault&lt;/b&gt;&lt;/span&gt;&lt;/font&gt;" style="rounded=0;whiteSpace=wrap;html=1;align=left;" parent="1" vertex="1">
          <mxGeometry x="474.59" y="250" width="360" height="120" as="geometry" />
        </mxCell>
        <mxCell id="AS0lxQMDUmL_Sf84tJ7P-3" value="" style="shape=image;verticalLabelPosition=bottom;labelBackgroundColor=#66B2FF;verticalAlign=top;aspect=fixed;imageAspect=0;image=data:image/jpeg,/9j/4AAQSkZJRgABAQAAAQABAAD/2wCEAAkGBxAQEBUQEBESERUXGBcXGRcVFhUXFhYVFxYYGBgVFRUYHSgiGholGxgVITIiJykrLy4uGCAzODMsNygtMCsBCgoKDg0OGhAQGy0lICUtLS0rLS0tLS0rLjAtKy4tLTAvLS0tLS0tLy0uLS8tLS0tLS0tLS0tLS0tLy0tLS0tLf/AABEIAJ0BQAMBEQACEQEDEQH/xAAcAAEAAgMBAQEAAAAAAAAAAAAABgcBAwUEAgj/xABIEAABAwIBCAUEDwYHAQAAAAABAAIDBBEhBQYHEjFBUYETImFxkTJygqEUFjRCUlRic5KTorGy0dIXIzVTs8EVM0Njg+Hw4v/EABoBAQADAQEBAAAAAAAAAAAAAAADBAUBAgb/xAA0EQACAQIDAwoHAQEBAQEAAAAAAQIDEQQSITFBUQUVIjNSgaGxweETFGFxkdHwMkNC8SP/2gAMAwEAAhEDEQA/ALxQBAEAQBAEAQBAEAQBAEAQBAEAQBAEAQBAEAQBAEAQBAEAQBAEAQBAEAQBAEAQBAEAQBAEAQBAEAQBAQTPnSG2gl9jwxiaUAF2sSGMuLgG2JcRY2wwIxVuhhXUWZuyK1bEKDyracbImlOaeQRSQxMcfJI1y0ngbnAqdYOF7XZTrY2tCOaKXiSL21z/AAIvB36l7+QhxZT54q9leI9tc/wIvB36k+QhxY54q9leI9tc/wACLwd+pPkIcWOeKvZXiPbZP8CLwd+pPkIcWOeKvZXiZGds38uP7X5p8hDixzvV7K8SQZGyq2pYSBqub5Tdtr7CDvG3wVGvQdJ23GthMXHERutGtqOioC2EAQBAEAQBAEAQBAEAQBAc/LOWqekZrzyBnAbXO7GtGJUlOlKb0IqlaFNdIiVBpNp3ylssT4oyeq++sR2vaNnK6sywmmj1K0cbr0lp/f2hOKWpZKwPje17Tsc0gg8wqcouLsy5GSkrxZtXD0EAQBAEAQBAEAQBAEAQBAEAQHxNK1jXPcQGtBcSdgAFyTyXUruyDdj8yZYr3VNRLUOveR7n2O4E9VvIWHJb8IZIqPAxJzzScjyxyFjg9u1pDh3g3C8SR7VmrMtOmnEjGyN2OAcO4i6lTujCnFxk4vcbLrp5F0Bi6HTF0B2M1Kvo6gNOx4Lee1vrFuaq4yGanfgaHJlXJXS3PT9f31J2sY+mCAIAgCAIAgCAIAgCA1VVTHEwySPaxo2ucQAOZXYxcnZHmUlFXbK7zk0lDGOhbfd0rx+Bh+8+CvU8KlrP8FCri29IafX+9fwV3V1ckzzJK90jjtc43KtrRWRU2u7NKHDpZFy7UUb9aCQt4tOLHec3++1eZQjNWkj1CTg7xdiz829IFPU2jntTybMT+7cfku3dx8SqVTCyWsdfMv0sXF6T08vYmQKqFwIAgCAIAgCAIAgCAIAgCAICHaVcq+x8nPYDZ0xEQ804v5agcPSCtYOGaqnw1K2Knlpv66FELZMkwV4kiSLJvmXV68BjO2N1vRdiPXrDkuU3pYoY2Fp5uJ37qQpmLoBdAYuh0yyQtIc3AggjvBuFxq6szsW4tNbUWdR1AljbINjgD4jYvn5xcZOL3H2NKoqkFNb0bl5PYQBAEAQBAEAQAlAQzOXSFT0144LVEnYf3bT2u39w8QrdPCt6y08ynVxaWkNfL3Kvy1l2prH688hdwaMGN81v99quxhGCtFFGUpTd5O5zrr0eQ0EkAAkk2AAuSTgAANpQFh0ejuJlIZ66d8Dg0uIbqakYtgH3BLjxAI4DiacsS3K0FcuRwqy5puxXrrXNjcbja1xxtuVwpnygJJm3npVUVmh3Sxfy3nYPkO2t+7sUVSjGpt28SSnWnT/zs4f2wtTN3OulrRaN+rJvjfYO5fCHd6lQqUJQ13cTRpYiFTTY+B3VCThAEAQBAEAQBAEAQBAEBS2mPKnS1jKcHqwMx+cks4/ZDPErWwMLQzcTMxs7zUeBAVdKRhcZ6izsZp1XR1IadkgLee1vrFuajWkjziYZqV+GpO7qUyjF0AugMXQ7YxdDpNsyavWhdEdrDh5rsR69ZZWOhaalxN/kqrmpOHDyf8yRKiagQBAEAQBAEBwc4s7KWhFpH68m6Nli7nuaO/1qanQlPXdxIKuIhT02vgVVnJnpVVt2l3RRfy2HaPlu2u+7sV+nSjT2beJn1K06n+tnD+2kcUpEEAQFhaJMjskfJVSN1jGWsjvsDiCXO77Ftu8qniptJRRcwlNNuT3HM0hZ0Pq5nU7LthieW2/mPaSC93ZcGw57ThJQpKCvvZ4xFZzll3IiCsFY+tU21rG17XthcgkC/GwJt2LgPldBljyCCCQRiCDYg8QUBOc2tI80No6sGdmzXFukaO3c/nY9qrVMNGWsdH4Fmnipw0lqvH+/rln5JytBVM6SCRsg322tPBzTiD3qjOnKDtJF+nUjNXiz2rwSBAEAQBAEAQBAEBrqZ2xsdI82a1pc48GtFyfALqTbsjjdldn5nynWuqJpJ3+VI9zyOGsbhvcBYcl9DCKhFRW4wpycpOT3nlXTyEOhri0hzcCCCO8G4UUkSx10ZZVNUCRjZBscAfEbFIndXMecHGTi9xsuunkxdDpi6AxdAdnNKs6OpaCcHgsPecW+sAc1WxkM1J/TUv8AJ1XJXS3PT9FhLFPpAgCAIAgCArrSRnRVQS+xYHCIFgcXjyzrFwsHe92d/ar+FoRlHO9TOxVeUZ5ForFXyOJJLrknEk7SeJVtlRHyh0IAgCAufRhBqZMa9li57pXWv74OLADyY1ZuJd6hpYVWp/kp+tp5YpHRztc2QHrB23WOJPbfbcYG60U01dbDOaknaW09mbuRJq6YQwjznkXbG3eXdvAb/WPNSooK7PVOm6jsixM9BR5PyZ7BYLukA1RgXEhwLpnnlt7gMBhTo56lTOy7WyU6eRf31KoV8zwgCA9WTayaGQSQPdG4b2m3I7iOwplzaWuczZdb2LqzEy3LW0xfMG67HlhLRYOs1rr23HrLOxVFUppLermlhK7qwbe52JGqxaCAIAgCAIAgCAhulbKnQZPdGDZ0zhGOOr5T+WqNX0lbwUM1W/DUq4ueWnbjoUbZbJkiyAwgMEKOSJIsl+aFVrQmM7WH7LsR69ZKb3FPGQtJS4nduvZUMXQ6YugMXQGWvLSCDYg3B4EYgo1fRnU2ndFq0FSJYmSDY5oPdcYjkcF8/Uhkk48D62lUVSCmt6N68EgQBAEAQFP6Vfd4+ZZ+J61sH1XezIxvW9y9SHHtxVppMqptGt0fDH71G4kikmfF15PYugOzmnm/JX1AibdrBZ0j/gs7PlHEDmdxUVWoqcbklKk6krfksyrzjbTVVPk2hiY4BzWPGNmt+C0j3wF3Em+ziTaiqeaLnI0cyi1GJ1M4qfJjnNkrvY+swYdI4A2O4tv1htsCDvsvNN1NkLioqe2du84FfpIoadvR0kTpbbNVoiiHiL+DVLHCzlrJkMsVCOkVcq7KeUZamV08ztZ7jidwG5rRuaNwV6MVFWRRlJyd2ea69HAMdiHDfHB8Lw/7UsaXEhlWW43hTpJbCBtvaWnom9yS/PH+nGsjlHrF9vVmvyb1cvv6Im6oGiEAQBAEAQBAEBS2l7KnS1ogB6sDLH5ySznfZ6MeK18DTy083EysbO88vAgyulQwgFkBiy4zqZ082qno6gA7HjVPftb6xbmolpIV45qb+mpNLqUzBdAYuugxdDphATnMSs1oXRHaw3Hmux+/W8Vk4+FpqXH0N7kupem4cPUk6ommEAQBAEBT2lb3ePmWfietbB9V3v0MjGdb3L1IcrRVCAOAO3x/9tXHFM9KTRsoMnSzyshhbrvebDh2l3AAXJPAKGfQV3sJYLO7LaWhlOpiyHRNpqch1RILl1sbnB0zhwGxo7N9is9XrTzPYaaSpRyo5mizJ2tNLWSHCMFoc4+/di9xJ3hu/wCWvWIloooUlvIRnFlQ1dVLUbnu6t90YwYOzqgcyVbpxyRUTPqSzycjnL2eAgNjISduH3qSNNsjnUUT0NAGxTxio7CtKbltM3Xo8i6AtTRL7kl+eP8ATjWRyh1i+3qzY5N6uX39EThUDRCAIAgCAIAgNVXUNijfK82axrnOPBrRcnwC7FOTsjjaSuz815Qq3TyyTv8AKke557C4k2HYNnJfRRioxUVuMGUszcnvPPZdPIsgMIdCAlui/I4qa9rni7IWukdfYSeqwHmS70FSxc8kNNpcw0M8tdh3K2nMUj4jta4t7wDgeYseatQkpxUuJi1KbpzcHuNC9niwuh0xdAYugOzmjW9FVMB2P6h5+T9oAc1VxcM9J/TUu4CpkrL66frxLJWKfRhAEAQBAU7pX/iA+ZZ+J61sH1Xe/QycZ1vcvUhytFUIAOAx7tpPABAWnkDJ8WRqN1ZUi87xYNwuL4thaeOF3Hs36qy61R1p5Y7F/XNWhRVKOaW1/wBYrvKeUJKiV88ztZzjc8ANzWjcAMAp4xUVZBu7uyf5fd/hmRG0+yWYajuN5OtLfubdl/NVen/+lW+5Hqs8lK3EqpXjPPtkZP5r1GDlsPMpqO03sYB38VPGmkVp1XI+rqQiCAIAgLW0Se5Jfnj/AE41kcodYvt6s2OTerl9/RE4VA0QgCAIAgCAICGaV8p9DQGIGzpnBnbqDrPPdYBvpK5gaeapfgVMZPLTtxKUstkyTFkAsgMWXAYsgLm0QZL6KidOR1p3kj5tl2t9eueayMdO9TLwNXBQtDNxGfVHqTNlAwe2x85uH3FvgrOBneDjwM7lOllqKa3+aIzdXjMMXQ6YugMXQAPINwbEYg8CNhTadV1qi28m1YmhZKPfNB7jvHI3C+eqQyTceB9VSqKpBTW89K8EgQBAEBTmlf8AiA+ZZ+J61cH1Xe/QycZ1vcvUhytlYICx9GWat7V87cBjC0jb/ukfh8eBWfi6/wDzj3/ov4Sh/wBJd37/AEefO3JmVa6cvNK9sbbiNuvFg34R6/lHAnkNyjpypwW0szUpPYac2My6v2XE6pgMcTXa7iXMN9XFrbBx2utyuu1K0crszkYO+p0NIuSMoVlUBFTPfFG3VadaMBznYvcAXA/BHor3hqlKEOk9WQYqnVnPorRfb9kVbmPlD4o/m6K34lYjWob5eZVlRxFtI+X7NntMyl8Vf9KP9Sl+bo9rwf6Ifk6/Z8V+x7TMpfFX/Sj/AFJ83R7Xn+h8nX7Piv2aqrNTKEY1n0stvk2f6mEleo4mjLZJf33PMsLWjq4vz8jjHhww7jwKnIDCAIC19EfuSX54/wBONZHKHWL7erNjk3q5ff0ROVQNAIAgCAIAgCApfSxlPpq7oQerA0N9N9nO9WoOS2cDTy078TJxk81S3AhdlcKhiyAxZALID7p6d0j2xsF3Pc1jRxc4gD1kLjaSuzqTbsj9JZNo2wQxws8mNjWDuaALntXzs5OUnJ7zejFRSSObnhR9LSuI2s647h5X2SfBWMHPLVX10KmPp56L+mv93Fb3W0fOmLoDF0OmLoDF0BPNH9brRPhJxYdYea7/AOgfFZWPp2kpcTb5MqXg4cPUlaoGmEAQBAU5pX/iA+ZZ+J61cH1Xe/QysX1vcvUhqtFYmOjrNhlY909QLwxG2qdj32vZ3yQLEjfcbrqriq7gssdrLWGoKbzS2IluVM8HA6lK1rWDAOI2gfBbsA/9gqUaXE0XLga8nZ5yhw6ZrXt3los4do3HuR0luCke/PLKdVDEyqpJWmI2DhqtNtbyXgkXsdnMLzSjFvLISbWqIf7ecofzGfVt/JT/AAYHjOx7ecofzGfVt/JPgwGdkzzWyhVOgdWVszWxWJaNVreqPfuIF8dw38woKkY3yxPcW7XZwcr6RZC4ilja1vwpMXHtDQQG878lJGgt55dTgeCl0g1jXXf0Ug4FuqeRacPAr06ETnxGdypoqPLcLpIwIalo2nygdwfby2Hcdo7MQlOtPDys9URVsPCuuD4lW1MD4nujkaWvaS1wO4jAhbEZKSujElFxbT2mu69HC1tEXuSX54/041kcodYvt6s1+Turf39ETpUDQCAIAgCAIDRW1TYYnyvNmsa557mgk/cvUYuTSW85KSim2fnGsqXTSPlf5T3Oee9xJPLFfRRiopJbjAlJybb3mmy6cCAyIncD4ILodE74J8EsLok2juGJtc2WpkZEyJrngyODQ5/ktAvtI1i70VWxam6dopu5PhnBVLyaVi3/AGy0Hxun+tZ+ayfl6vZf4NT5mj21+UfL85MnkEGrpiDgf3rNninwKq/8v8D41KStmX5K0nDQ9wY9sjQSGuaQQ5oNgQRtwW5CWaKZ81Uhkk48DVdejwLoDF0Bi66Ds5o13Q1bLnB/7s+l5P2g1VsXTz0n9NS3gamSsvrp/d5aCwz6MIAgCApvSx/EP+Fn4nrVwfVd79DKxfW9y9SGq0Vy1s0sMhOLNp6XW+sIP2LLMxHX/jyNPC9Su/zPrMWGJ07i+xeG9QHZ8o94w8SvFVuxPE9Wf0MTejIsJMcABizieezvK80W9RI+Y8ciy6+wNk1eTrt+0n/VD/yVqrZCbqKn6WWOLZrvYz6Tg3+643ZXOonGk2t1Gw0jOqwN1yBss3qsHcLO8BwVegr3ke6j3Hmye3/D6Vp1Wmons86zQejiHkix2E7fHguvpy+iOpWRvpctCd3QVTY+ikBYS1gaWk7HA7rG3dt3LjhbWJ299pwslGXJ2UWsdgWvEbuDo3kDW7rEOHcFJK04Ea6MjdpYoRHVslaLdKzHtcw2v9EsHJWsBNuDjw9TO5QglUUuK8iEK8UC2NEPuSX58/041k8odYvt6s1+Turf39ETpUDQCAIAgCAICF6V8p9FRdCD1pnBvoN6zj6mt9JXcDTzVM3AqY2eWnbiU1ZbJkiyAwuA90cgcF6I2rH2hwIAgMOUc0TQZ0cjS9Us4G47j/3fxXinwI8THVS4nRupSqYugMXQGLoAHEYg2O48DxQ6XBkisE8Eco980E9jtjhyNwvnqsMk3HgfUUanxKanxPWoyUIAgKa0sfxH/hj/ABPWrg+q736GVi+t7l6kMJ4q03Yrk50YZzRROfQ1BAjlN2F3k65Gq5juAcALdoPFUMVBy6cdxdwtRR6L3kgynmrURP1qe8jdxBs9o4HEX7woI1E1qXXE10WbFXM8dKDG3e55u63AC9/GwR1IrYLMxn5leKOFuTqcg2t0ljfVDcQwn4RNie7tSjBt52eZvciBqyRnoydUCKaKU7GSMee5rg4/cuNXTR1bSZaUqM68NQMWuaYyRsuCXNx7QXeCgw72o91FvPlgdlGmZNGNaeK0UrRa7h7yTn+fBP8AErPYdWqFBkCQP16lhihYC97nbNVuJHP80c1u2i3E40Uz8o5SY61taRth8CJhvbk0HmV7soQPH+pHp0u1jXVUUQOLIyT2F7sAe2zAeYU+A0i295Sx/Skkt3r/APCCXWjczbFsaIPckvz5/pxrJ5Q6xfb1Zr8ndW/v6InaoF8IAgCAIAgKY0pZS6auMYPVhaGem7rPPraPRW1gaeWlfiZGMnmqW4EPsrhVMWQBAGkg3CA9kUgd3rpG1Y+0OBACuSPUXqbKGTVlHA9U89nrsoNkiWos1N/k7V1MUDF0Oi6AxdAYuh0n2jmu1opICcWHWHmu2gdzgT6SysfTtJT4mzyZUvFw4epMFnmmEAQFXaU83KuSf2XDH0rBG1pDcXt1S4klm0jHddaGFrRUcj23M/FUZOedbLFXF19qtMrK24wgJHkfPjKFK0MZPrsGxsoDwOwE9YDsvZQyoQltRNGvOOx/kkNHpbqW/wCdTQyeY58f366ieEjuZKsXLejpN0kZNnwqqJ1+JZFKBzJB9S8fLTX+We1ioPajaytzcqPfiE9vTRW8equZa8f657VWk9/ob2ZmZPnF6Wt1r8HxSjwbY+tefizj/pHtRi9jJNSZCvR+w6p4maBqtcAWu1R5OFzZzdx7Bzic+lmR7tpZkGyhmbX0ziacukaffRu1H24Obceq6sKrCW0jcGth5oM3sqT9RzZg07elkIbzBNzyBXXUpoZZMk0EFLkOB00zxJO8WAGDnb9SMbm3tdx57go0pV5WWwSnGlG7KmynXyVEz55Td73axtsG4AdgAAHYFqQioxUUZUpOUnJmulifI8Rxtc9ztjWgknuAXrNlVzxlzaF1aOsiT0dK5k4DXPkL9UG5aCxrbOIwv1TsusrF1Y1Jpx4GphKMqcGpb3clSqloIAgCAIDz5Qq2wRPmf5LGuee5oJ/svUIuUlFbzzKSjFye4/O1TO6R7pH4ue5z3ec4kn1kr6NRSSS3GC227s1LpwIDFkAsgJZo1yGyrq3GVofHGwlwOwufdrR4a57C0KpjKzpwWXa2WcLSVSbzbEbs781JKF2u274HHqv3tJ2Nf28Dv716w2KVVWe0jxOGdJ3Wz+2kbVoqhDp8PCgmixTZ24JdZodxHr3qSLurlKccsmj7uunkXQGEOhAdjNCu6GsjJNmv/du7n4D7Wqq2Kp56T+mpawdTJWT46fn3LXWGfQhAEAQEVzozEpK677dBMf8AUYBif9xmx3fge1T08RKGj1RBUw8Z6rRlRZy5pVdAbzM1o74SsuWHhc+9PYfWr9OrGewo1Kcof6OFdSEYQBAEBuYBYKSOw8SWp0KTLVVF/lVM7LbmyPA+jey8unB7UjqqTWxv8napNIOU49s4kHCSNh9bQD61E8LSe4lWKqrfc31OknKT22D4o+1keP2y4epcWEpLideLqvgRarq5JnmSWR0jztc8lx7rnd2KxGKSskQSk27tkszZ0fVVVaSa9NFtu4fvHD5LDs7z4FV6uKhDRasnpYac9XovEtXIWb1NRM1aeMNJ8p5xe7znf22dizalWVR9JmjTpRproo6qjJAgCAIAgCAhOlbKXRUYgB60zgPQZZzvXqD0lewFPNUzcCljqmWnl4lQrZMoLgFkOmLIDCAuTRXkzoaHpSOtM4v9AdVg7sC70ljY6pmqW4GtgoZad+JLqiBsjSx7Q5rhYtIuCDuIVNNp3RaaTVmVLnlme6jJmhu+AnvdFfc7i3g7keJ2sLi1V6Mv9eZjYnCul0o/58iKK4UzDlHNEsGe3JUmBbwNx3H/AL+9eKb2o84iOqke5SlcxdALodMIDF+SHbFy5FrvZFPHNvc0X84YOH0gV89Whkm4n0lGp8SmpcT2qMlCAIAgPmRgcC1wDgRYgi4IO4gonYFe506L4ZryURED9vRm/RO7t7OVx2BXKeKa0nr5lSphU9YafTd7FVZWyVUUknRVETo3br7HDi1wwcO0K5GSkropyi4uzPEvR5CA3x7ApI7DxLafS6eQgO5m5mrV15/cs1Y74yvuGDjY++PYOdlFVrQp7dvAlp0Z1NmziWzmxmNSUVnkdNMP9R4GB/227G9+J7Vm1cTOppsRo0sNCGu1koVcsBAEAQBAEAQBAU7pUq3Pr+jPkxxtAHndYu9YHorbwEUqV+LMfHSbq24IhyuFS5hAEOhAbqKldNKyFnlPc1g7C4gX7he68ykopye49RTk1Fbz9EUlO2KNkTBZrGta0cA0WHqC+blJybbN+KUVZG5cOny9gcC1wBBFiDiCDtBHBE7B6lV57ZmGmvUUwLodrm7TF2jiz7u7Zs4XF/E6E9vn7mPisJ8Ppw2eXt5EMKuyKcXqfdG4iQdtx/7wUC0kTVNabOrdTFMXQ7YxdAYuh0ICwtGtS50MkZ2MeCPTGI8RfmsnlCKU0+Jr8nSbg48GTFUDRCAIAgCAIDyZTybBUxmKeNsrDucNnaDtB7RivUZyi7pnmUFJWaKszp0WyR3koXGVu3onEa48x2x3cbHvV2nik9JaFKphWtY6lczROY4se1zHA2LXAhwPAg4hWysfcZwCkjsI5bT3ZKyXPVSdFTxOkd2bAOLnHBo7SuTnGCvJiMHJ2ii0s2NGUMVpK0id+3oxfom9+9/qHYVn1cY3pDTzL9LBpaz18vcn8bA0BrQGgCwAFgANwCpXuXT6QBAEAQBAEAQBAEBGM78zosoFsmuYpWjV1wNYObt1XNuL2JNjfedqt4bFyo6WuiriMKqut7Mi37K5fjbPq3fqVvnKPZ8fYq83y7Xh7mP2Vy/G2fVu/UnOUez4+w5vl2vD3H7K5fjbPqnfqTnKPZ8fYc3y7Xh7j9lUvxtn1Tv1JzlHs+Psd5vl2vD3O/mnmFHRSieSTppBfV6uq1lxYm1yS61xft2KtiMa6scqVkT0MIqbzN3ZMlSLgQBACEBBct6OY5ZC+mlEAOJYWazQfkWI1R2Y9lloUuUJRVpq/wBTPq4BN3g7fQ8UGjWRpv7IYT5h/Uvfz8ez4niWAm1bN4e56P2fS/GGfQP5rvOEez4njm2Xa8Pcx+z6X4wz6B/NOcI9nxHNsu14e4/Z9L8YZ9A/mnOC7PiObZdrw9wNHsnxhn0D+pOcI9nxO82y7Xh7mRo9fvqW/Vn9Sc4Ls+I5tl2vD3JfkTJMdJF0Udzjdzjtc7ifVgqFarKrLMzQo0Y0o5YnQURKEAQBAEAQBAEBxM481qSvbaePrWsJG4SN7nbx2G4UtOtKGwiqUoz2kLybomDZT09Rrwg9UMGq944PJwbyvfsVp43o9FalZYO8uk9CxMm5NhpoxFBG2Ng3NG08SdpPacVSlOUneTLkYRirRR615PQQBAEAQBAEAQBAEAQBAEAQBAEAQBAEAQBAEAQBAEAQBAEAQBAEAQBAEAQBAEAQBAEAQBAEAQBAEAQBAEAQBAEAQBAEAQBAEAQBAEAQBAEAQBAEAQBAEAQBAEAQBAEAQBAEAQBAEAQBAEAQBAEAQH//2Q==;imageBackground=#FF66B3;imageBorder=default;" vertex="1" parent="1">
          <mxGeometry x="230" y="251" width="244.59" height="120" as="geometry" />
        </mxCell>
      </root>
    </mxGraphModel>
  </diagram>
</mxfile>
